<svg width="283" height="43" viewBox="0 0 283 43" fill="none" xmlns="http://www.w3.org/2000/svg">
<path d="M76.3151 28.7873V34.5833H57.4871V8.80734H64.2191V28.7873H76.3151ZM91.4058 8.15933C95.4138 8.15933 98.6058 9.57533 100.982 12.4073C103.022 14.8793 104.042 17.9753 104.042 21.6953C104.042 25.9913 102.722 29.3993 100.082 31.9193C97.7778 34.1273 94.8858 35.2313 91.4058 35.2313C87.3258 35.2313 84.0858 33.8153 81.6858 30.9833C79.6218 28.5353 78.5898 25.4393 78.5898 21.6953C78.5898 17.3993 79.8618 14.0393 82.4058 11.6153C84.8538 9.31134 87.8538 8.15933 91.4058 8.15933ZM91.3698 13.7033C89.4258 13.7033 87.9138 14.5193 86.8338 16.1513C85.8978 17.5433 85.4298 19.3793 85.4298 21.6593C85.4298 24.3233 86.0298 26.3753 87.2298 27.8153C88.2858 29.0633 89.6778 29.6873 91.4058 29.6873C93.2298 29.6873 94.6578 28.9793 95.6898 27.5633C96.7218 26.1233 97.2378 24.1193 97.2378 21.5513C97.2378 18.9353 96.6378 16.9313 95.4378 15.5393C94.4058 14.3153 93.0498 13.7033 91.3698 13.7033ZM131.378 20.5793V34.5833H127.058C126.818 33.4793 126.698 32.6873 126.698 32.2073C126.698 32.1593 126.698 32.0993 126.698 32.0273C126.698 31.9313 126.698 31.8473 126.698 31.7753C124.874 34.0793 122.294 35.2313 118.958 35.2313C114.998 35.2313 111.866 33.8273 109.562 31.0193C107.57 28.5713 106.574 25.4873 106.574 21.7673C106.574 17.4473 107.942 14.0153 110.678 11.4713C113.054 9.26333 116.042 8.15933 119.642 8.15933C122.906 8.15933 125.618 9.14334 127.778 11.1113C129.65 12.8153 130.718 14.9633 130.982 17.5553H124.466C123.89 14.9873 122.246 13.7033 119.534 13.7033C117.566 13.7033 116.054 14.4113 114.998 15.8273C113.942 17.2193 113.414 19.2233 113.414 21.8393C113.414 27.0713 115.55 29.6873 119.822 29.6873C122.966 29.6873 124.766 28.2473 125.222 25.3673H120.542V20.5793H131.378ZM147.445 8.15933C151.453 8.15933 154.645 9.57533 157.021 12.4073C159.061 14.8793 160.081 17.9753 160.081 21.6953C160.081 25.9913 158.761 29.3993 156.121 31.9193C153.817 34.1273 150.925 35.2313 147.445 35.2313C143.365 35.2313 140.125 33.8153 137.725 30.9833C135.661 28.5353 134.629 25.4393 134.629 21.6953C134.629 17.3993 135.901 14.0393 138.445 11.6153C140.893 9.31134 143.893 8.15933 147.445 8.15933ZM147.409 13.7033C145.465 13.7033 143.953 14.5193 142.873 16.1513C141.937 17.5433 141.469 19.3793 141.469 21.6593C141.469 24.3233 142.069 26.3753 143.269 27.8153C144.325 29.0633 145.717 29.6873 147.445 29.6873C149.269 29.6873 150.697 28.9793 151.729 27.5633C152.761 26.1233 153.277 24.1193 153.277 21.5513C153.277 18.9353 152.677 16.9313 151.477 15.5393C150.445 14.3153 149.089 13.7033 147.409 13.7033Z" fill="white"/>
<path d="M170.461 8.80734V34.5833H163.729V8.80734H170.461ZM175.19 8.80734H185.81C189.218 8.80734 191.678 9.32333 193.19 10.3553C195.542 11.9393 196.718 14.3393 196.718 17.5553C196.718 20.1713 195.83 22.2833 194.054 23.8913C192.518 25.2833 190.25 25.9793 187.25 25.9793H181.922V34.5833H175.19V8.80734ZM181.922 14.3513V20.6873H186.35C188.894 20.6873 190.166 19.6313 190.166 17.5193C190.166 15.4553 188.81 14.4113 186.098 14.3873L181.922 14.3513ZM219.774 16.5473H213.366C213.27 14.4353 211.89 13.3793 209.226 13.3793C206.898 13.3793 205.734 14.1353 205.734 15.6473C205.734 16.3433 206.046 16.8473 206.67 17.1593C207.198 17.4233 208.89 17.9153 211.746 18.6353C214.458 19.3313 216.426 20.0633 217.65 20.8313C219.762 22.1273 220.818 24.0713 220.818 26.6633C220.818 29.4953 219.702 31.6793 217.47 33.2153C215.526 34.5593 212.97 35.2313 209.802 35.2313C205.962 35.2313 203.034 34.3073 201.018 32.4593C199.242 30.8513 198.33 28.6673 198.282 25.9073H205.05C205.194 28.6433 206.862 30.0113 210.054 30.0113C212.67 30.0113 213.978 29.1353 213.978 27.3833C213.978 26.5673 213.63 25.9673 212.934 25.5833C212.262 25.1753 210.57 24.5873 207.858 23.8193C204.57 22.8833 202.362 21.9353 201.234 20.9753C199.914 19.8473 199.254 18.2153 199.254 16.0793C199.254 13.5353 200.31 11.5313 202.422 10.0673C204.27 8.79533 206.634 8.15933 209.514 8.15933C212.946 8.15933 215.562 8.98733 217.362 10.6433C218.922 12.0833 219.726 14.0513 219.774 16.5473ZM246.335 8.80734V24.1433C246.335 27.5753 245.627 30.1433 244.211 31.8473C242.339 34.1033 239.315 35.2313 235.139 35.2313C230.699 35.2313 227.543 33.9593 225.671 31.4153C224.495 29.8073 223.907 27.3593 223.907 24.0713V8.80734H230.639V24.5753C230.639 26.3753 230.999 27.6833 231.719 28.4993C232.463 29.2913 233.651 29.6873 235.283 29.6873C236.795 29.6873 237.899 29.2913 238.595 28.4993C239.291 27.6833 239.639 26.3753 239.639 24.5753V8.80734H246.335ZM279.542 8.80734V34.5833H273.17V28.7873C273.17 25.0673 273.278 20.4593 273.494 14.9633C272.582 18.8273 271.658 22.2353 270.722 25.1873L267.734 34.5833H262.586L259.562 25.4393C258.674 22.7753 257.738 19.2833 256.754 14.9633C256.97 19.8593 257.078 24.1793 257.078 27.9233V34.5833H250.706V8.80734H260.354L263.126 17.7713C263.942 20.3873 264.638 23.3753 265.214 26.7353C266.006 22.8953 266.738 19.8593 267.41 17.6273L270.038 8.80734H279.542Z" fill="#FC732F"/>
<path d="M34.9043 8.27199C29.3839 4.256 22.0465 3.34188 15.9513 4.55307C9.13206 -2.68881 1.49044 0.64217 0 1.59975C0 1.59975 5.24415 6.50616 4.39237 10.8034C-1.81622 17.7719 1.13523 25.5305 4.39237 29.1941C5.24415 33.4914 0 38.3978 0 38.3978C1.47608 39.3585 9.0969 42.6793 15.9513 35.4745C22.0329 36.6778 29.3703 35.7716 34.9043 31.7485C43.4623 25.7328 43.4903 14.3185 34.9043 8.2712V8.27199ZM21.1101 31.7098C18.9759 31.7165 16.8501 31.4145 14.7874 30.8114L13.3687 32.3197C12.5807 33.1611 11.6983 33.8884 10.7431 34.4837C9.58404 35.1263 8.32494 35.5211 7.03239 35.6475C7.10415 35.5069 7.1673 35.3663 7.23116 35.2335C8.65056 32.3366 9.03327 29.7375 8.37931 27.4362C6.04499 25.4128 4.64784 22.8269 4.64784 19.9992C4.64784 13.5205 12.0204 8.27199 21.1101 8.27199C30.1998 8.27199 37.5723 13.5205 37.5723 19.9992C37.5723 26.4778 30.1998 31.7098 21.1101 31.7098ZM13.2123 22.7882C12.5606 22.7983 11.9318 22.5236 11.4637 22.0242C10.9956 21.5248 10.7264 20.8415 10.7151 20.124C10.6648 16.5378 15.5825 16.4596 15.632 20.0379V20.0782C15.635 20.4312 15.5748 20.7814 15.4548 21.1088C15.3348 21.4362 15.1574 21.7344 14.9327 21.9862C14.7079 22.238 14.4403 22.4386 14.1451 22.5765C13.8499 22.7144 13.5329 22.7868 13.2123 22.7897V22.7882ZM18.506 20.124C18.4493 16.5378 23.3669 16.4517 23.4236 20.03V20.0782C23.4516 23.6399 18.5626 23.6786 18.506 20.124ZM28.7948 22.7882C28.143 22.7983 27.5141 22.5236 27.0459 22.0243C26.5777 21.5249 26.3084 20.8416 26.2968 20.124C26.2473 16.5378 31.165 16.4596 31.2145 20.0379V20.0782C31.2186 20.4315 31.1591 20.7823 31.0394 21.1102C30.9198 21.4381 30.7424 21.7367 30.5175 21.9888C30.2926 22.2408 30.0245 22.4414 29.7289 22.5788C29.4332 22.7163 29.1157 22.788 28.7948 22.7897V22.7882Z" fill="#FC732F"/>
</svg>
